<?xml version="1.0" standalone="no"?>
<!DOCTYPE svg PUBLIC "-//W3C//DTD SVG 20010904//EN"
 "http://www.w3.org/TR/2001/REC-SVG-20010904/DTD/svg10.dtd">
<svg version="1.0" xmlns="http://www.w3.org/2000/svg"
 width="1920.000000pt" height="1200.000000pt" viewBox="0 0 1920.000000 1200.000000"
 preserveAspectRatio="xMidYMid meet">
<metadata>
Created by potrace 1.15, written by Peter Selinger 2001-2017
</metadata>
<g transform="translate(0.000000,1200.000000) scale(0.100000,-0.100000)"
fill="#000000" stroke="none">
<path d="M0 11648 c0 -194 4 -348 8 -342 9 13 198 79 267 93 148 30 927 39
1085 12 208 -36 373 -96 413 -152 15 -21 17 -31 8 -48 -16 -28 -41 -41 -146
-71 -117 -34 -118 -49 -5 -72 300 -61 402 -91 559 -164 84 -39 92 -46 80 -60
-18 -22 -119 -14 -284 22 -158 34 -211 40 -230 24 -82 -68 199 -227 485 -276
115 -19 137 -28 119 -50 -15 -18 2 -18 27 1 22 17 95 20 111 4 8 -8 17 -8 31
0 25 13 35 1 27 -32 -6 -23 -1 -25 118 -60 147 -44 207 -46 310 -14 67 22 77
22 113 10 21 -8 91 -18 154 -24 155 -12 222 -36 298 -103 67 -59 241 -150 366
-190 120 -39 122 -39 129 40 4 37 11 72 17 79 6 8 61 14 162 18 84 3 261 18
393 33 403 44 618 35 765 -33 61 -28 405 -141 545 -179 50 -14 133 -27 185
-30 93 -6 96 -5 141 24 26 16 59 47 75 67 27 36 27 38 16 93 -17 83 -13 86
166 93 141 5 200 18 187 40 -21 32 -149 62 -325 74 -174 12 -214 37 -122 76
26 12 168 61 316 110 324 108 471 139 570 122 134 -23 158 -40 431 -317 233
-236 300 -296 333 -296 17 0 8 48 -28 159 -47 139 -40 141 215 64 82 -24 115
-32 213 -48 51 -8 109 -22 129 -30 19 -8 43 -15 52 -15 10 0 27 -18 39 -39 26
-45 132 -141 156 -141 9 0 20 8 23 17 19 49 -66 269 -156 402 -114 170 -112
163 -55 230 25 29 50 45 90 58 l55 17 54 -27 c65 -32 105 -82 171 -217 86
-175 227 -633 253 -824 19 -137 -21 -187 -103 -131 -21 15 -42 23 -46 18 -14
-15 -39 -176 -45 -291 -9 -161 -34 -229 -100 -268 -83 -48 -195 -79 -405 -109
-63 -9 -126 -23 -141 -30 -39 -20 -90 -82 -175 -210 -77 -115 -105 -138 -119
-96 -30 96 -23 239 20 376 27 85 31 148 15 206 -15 55 -80 83 -187 82 -80 0
-83 -1 -180 -56 -55 -31 -119 -60 -142 -66 -60 -13 -122 9 -163 60 -37 46 -69
50 -150 18 -40 -16 -69 -20 -118 -17 -59 3 -78 10 -187 71 -66 37 -130 67
-142 67 -28 0 -54 -57 -71 -150 -25 -144 -73 -283 -104 -310 -57 -47 -179 5
-226 95 -22 44 -25 61 -23 137 4 144 -31 205 -179 319 -130 99 -243 139 -389
139 -104 -1 -134 -15 -256 -121 -49 -41 -101 -84 -118 -96 -32 -21 -136 -58
-196 -68 -51 -9 -292 33 -442 77 -49 15 -56 5 -15 -23 192 -135 322 -341 402
-639 18 -69 56 -279 56 -313 0 -43 49 -280 66 -316 8 -19 11 -37 7 -42 -4 -4
-111 -19 -238 -34 -126 -14 -254 -30 -284 -35 -109 -20 -119 -17 -211 61 -99
83 -124 97 -186 106 -33 4 -48 11 -51 24 -3 10 -16 25 -30 34 -16 11 -22 22
-18 33 5 14 4 15 -6 5 -16 -16 -49 -17 -49 -3 0 10 22 46 87 145 50 77 60 87
80 83 16 -2 68 17 115 42 10 6 24 10 31 10 18 0 78 82 116 157 75 147 44 349
-84 547 -124 193 -418 467 -745 693 -97 67 -137 88 -190 99 -30 7 -152 51
-272 98 -475 189 -570 202 -838 111 -74 -25 -169 -55 -210 -66 -109 -29 -109
-29 -80 -41 32 -12 120 0 142 19 22 19 316 29 408 13 36 -6 97 -15 135 -20 39
-5 90 -16 115 -25 25 -9 56 -15 70 -14 14 2 36 -1 49 -5 36 -12 152 -95 180
-129 29 -35 77 -57 122 -57 24 0 30 -4 25 -16 -3 -8 -2 -12 4 -9 6 3 10 1 10
-4 0 -6 7 -11 16 -11 13 0 14 3 5 13 -8 11 -7 14 7 14 21 0 54 -26 46 -38 -3
-5 1 -9 10 -9 8 0 30 -18 49 -40 19 -22 41 -40 50 -40 8 0 38 -12 66 -27 l52
-26 29 28 c17 16 30 37 30 48 0 29 22 15 35 -22 9 -27 25 -41 81 -70 95 -51
244 -148 244 -161 0 -5 15 -27 33 -47 18 -21 48 -65 67 -98 18 -33 39 -65 47
-70 22 -16 36 -82 38 -170 1 -44 5 -125 9 -180 10 -125 -4 -222 -35 -248 -28
-23 -53 -18 -57 11 -2 13 -14 27 -28 32 -13 5 -24 13 -25 17 0 5 -3 20 -5 35
-3 16 2 32 12 42 18 18 66 165 58 178 -3 4 -19 15 -35 23 -48 25 -92 11 -144
-47 -41 -46 -45 -55 -45 -102 0 -28 5 -79 10 -113 15 -91 -14 -153 -39 -83
-17 51 -56 37 -91 -33 -12 -23 -12 -35 -1 -70 7 -23 16 -81 20 -129 5 -72 10
-91 28 -110 l23 -22 24 23 c14 13 26 39 30 63 9 56 25 38 36 -41 5 -39 5 -100
-2 -164 -6 -56 -12 -155 -13 -220 -1 -65 -6 -122 -11 -127 -8 -8 -248 -62
-448 -101 -217 -42 -1080 -273 -1296 -347 -229 -79 -579 -247 -795 -382 -157
-98 -261 -173 -420 -300 -161 -128 -178 -140 -212 -140 -41 0 -106 -67 -99
-103 4 -21 -4 -34 -41 -67 -31 -29 -48 -39 -55 -32 -16 16 -41 3 -28 -14 15
-17 -2 -50 -28 -56 -11 -3 -45 9 -77 26 -53 28 -60 36 -72 78 -14 49 -71 108
-104 108 -18 0 -49 -31 -49 -49 0 -18 -51 -9 -64 11 -8 13 -8 23 2 38 17 27
15 105 -3 140 -18 36 -54 55 -118 64 -43 7 -49 11 -63 44 -8 20 -13 49 -10 64
4 22 -1 32 -26 51 -31 24 -31 25 -14 57 9 18 16 42 16 54 0 28 -30 106 -52
135 -17 23 -18 5 -18 -584 l0 -608 21 27 c21 26 53 34 64 16 3 -5 39 -10 80
-10 63 0 78 -3 101 -24 33 -27 40 -12 -82 -163 -44 -55 -87 -109 -95 -120 -19
-27 -56 -38 -74 -23 -13 11 -15 -117 -15 -1008 0 -861 2 -1021 14 -1016 16 6
57 -92 163 -396 86 -248 121 -327 170 -381 31 -34 41 -39 80 -39 36 0 63 11
146 60 188 112 342 153 425 116 47 -21 54 -32 97 -153 82 -226 201 -405 312
-470 39 -22 43 -29 43 -63 0 -29 -5 -40 -19 -45 -27 -8 -91 26 -136 72 -76 79
-179 264 -231 419 -23 67 -37 93 -67 120 -34 32 -42 34 -105 34 -106 0 -225
-44 -372 -138 -93 -59 -117 -66 -160 -47 -64 29 -104 109 -220 445 -64 185
-127 350 -136 359 -2 2 -3 -43 -3 -100 1 -57 4 -94 6 -82 2 13 9 23 14 23 6 0
7 -5 4 -11 -4 -5 0 -18 8 -27 20 -23 69 -161 61 -173 -3 -6 1 -18 10 -28 8 -9
33 -69 56 -134 62 -182 110 -275 163 -324 42 -39 52 -43 97 -43 40 0 52 4 64
23 8 12 37 33 63 46 26 13 55 28 63 33 100 59 242 103 305 95 36 -5 70 -31 60
-47 -2 -3 6 -6 18 -6 18 1 26 -11 49 -78 22 -61 26 -82 17 -93 -9 -10 -9 -12
2 -8 16 6 69 -90 69 -125 0 -10 8 -27 18 -37 10 -10 29 -34 42 -53 13 -19 43
-59 68 -88 24 -29 42 -59 39 -66 -4 -10 0 -12 15 -8 17 4 20 2 15 -12 -4 -10
-3 -15 3 -11 12 8 91 -25 85 -35 -3 -4 11 -2 30 4 55 19 92 62 105 119 24 111
49 105 144 -36 42 -62 76 -120 76 -129 0 -10 7 -21 15 -25 8 -5 46 -61 85
-126 49 -82 69 -124 65 -137 -5 -16 -3 -19 11 -13 13 5 16 3 11 -10 -4 -11 -1
-17 7 -17 7 0 31 -28 54 -62 30 -47 38 -66 30 -76 -8 -9 -7 -11 4 -7 9 4 30
-16 62 -59 26 -36 54 -70 62 -77 8 -6 14 -20 14 -30 0 -11 6 -19 14 -19 20 0
88 -79 80 -92 -4 -6 -3 -8 3 -5 12 7 113 -57 126 -80 4 -7 14 -13 20 -13 7 0
18 -5 25 -12 6 -6 20 -13 29 -14 10 -1 53 -10 95 -20 71 -16 95 -16 312 -4
129 7 283 10 342 7 125 -8 211 -28 206 -47 -2 -10 0 -11 11 -2 18 15 71 -2
169 -55 55 -30 68 -42 64 -57 -4 -14 -2 -16 6 -8 14 14 48 -3 48 -24 0 -8 8
-17 18 -21 21 -7 122 -104 122 -117 0 -5 -10 -21 -22 -35 l-22 -26 23 21 c21
20 25 20 52 7 41 -21 52 -47 45 -107 -3 -28 -2 -94 4 -146 5 -52 17 -160 25
-240 16 -152 53 -313 85 -366 13 -23 15 -35 7 -43 -8 -8 57 -11 241 -11 207 0
250 2 246 14 -3 7 4 28 15 47 11 19 29 75 41 124 30 135 52 204 67 216 7 6 13
19 13 28 0 24 57 75 110 99 136 61 271 69 415 26 266 -80 361 -92 473 -59 47
14 187 82 251 122 18 12 22 12 16 2 -4 -8 2 -4 12 7 22 27 80 57 93 49 5 -3
14 3 19 14 11 20 88 51 128 51 49 0 98 -38 142 -113 20 -32 21 -40 9 -55 -11
-15 -11 -16 3 -4 20 15 28 -2 129 -280 38 -103 76 -201 85 -219 9 -17 15 -40
12 -50 -5 -18 8 -19 375 -19 240 0 377 4 373 10 -3 5 8 37 26 72 17 34 47 103
66 153 19 49 43 108 53 130 9 22 32 78 50 123 18 46 39 86 47 89 7 3 10 9 7
14 -6 10 53 120 85 157 19 22 38 31 26 13 -3 -5 -1 -12 4 -16 6 -3 8 5 6 17
-4 19 5 28 48 51 29 16 57 27 64 25 6 -2 18 4 25 13 20 25 182 86 282 105 73
15 100 16 152 7 74 -13 157 -50 147 -65 -3 -7 -1 -8 5 -4 6 4 19 -1 29 -11 26
-25 112 -70 180 -94 77 -27 229 -36 330 -19 75 12 192 51 222 74 12 9 13 8 7
-4 -4 -8 1 -6 11 6 10 11 41 36 68 55 28 18 59 41 70 50 11 10 31 19 45 21 14
1 25 8 25 15 0 36 217 153 405 218 58 20 213 68 345 106 237 69 344 107 420
147 21 12 42 19 47 16 4 -3 8 1 8 8 0 14 56 54 71 51 5 -2 8 0 6 5 -1 4 20 33
47 64 34 39 54 55 68 53 15 -3 18 0 13 15 -4 14 10 47 44 104 60 99 76 139
102 266 11 52 26 104 34 117 8 12 15 28 15 36 0 22 61 73 129 107 170 85 412
141 581 136 l85 -3 34 39 c19 22 39 37 47 34 15 -6 28 11 29 34 0 8 8 14 17
14 10 -1 15 2 12 7 -6 10 33 69 44 67 4 -1 15 2 25 7 13 5 15 10 7 15 -15 9 2
45 25 54 12 4 15 1 10 -13 -3 -10 -7 -33 -10 -51 -11 -86 -60 -259 -121 -424
-131 -354 -438 -841 -773 -1226 -138 -159 -171 -188 -243 -216 -137 -52 -300
-175 -363 -275 -45 -70 -72 -86 -82 -49 -3 11 -7 20 -9 20 -1 0 -36 -24 -77
-52 -41 -29 -108 -77 -150 -105 -64 -44 -80 -62 -102 -107 -29 -61 -75 -92
-123 -81 -23 5 -42 -4 -102 -46 -40 -29 -85 -58 -99 -65 -22 -12 79 -14 652
-14 372 0 677 2 677 5 0 2 -14 8 -32 13 -29 7 -32 12 -34 47 -1 36 7 49 90
144 50 58 104 117 119 131 50 43 70 66 131 144 32 41 63 73 67 70 5 -3 9 -26
9 -51 0 -26 2 -44 5 -42 2 3 19 57 38 120 27 91 45 132 92 204 32 49 82 112
110 140 43 43 94 118 140 206 5 10 22 24 37 30 15 6 39 31 53 54 36 62 115
100 188 91 28 -4 72 -13 97 -21 170 -55 288 -85 375 -95 55 -6 123 -18 150
-25 28 -7 97 -25 155 -39 58 -15 117 -30 131 -35 20 -6 30 -3 46 15 l20 23 94
-25 c52 -14 121 -32 154 -40 33 -7 78 -18 99 -23 22 -5 51 -18 65 -28 14 -10
71 -29 126 -42 55 -13 111 -27 125 -31 14 -5 43 -11 65 -15 68 -10 215 -59
212 -70 -4 -11 -87 -22 -197 -25 l-75 -1 45 -14 c25 -7 56 -16 70 -20 14 -4
32 -9 40 -12 8 -3 25 -5 37 -4 13 1 28 -1 35 -6 7 -4 33 -8 58 -9 25 0 97 -6
160 -13 143 -17 242 -24 300 -22 25 0 69 -4 98 -10 50 -10 55 -9 74 10 10 12
23 19 27 17 4 -3 77 -9 162 -15 192 -13 266 -27 280 -53 9 -16 17 -19 43 -14
18 4 123 -1 232 -10 112 -9 309 -16 449 -16 413 0 682 40 1065 157 67 21 114
27 220 32 104 4 144 9 176 24 23 11 61 24 85 28 40 8 37 9 -37 10 -49 1 -87 6
-98 14 -17 12 -13 16 42 36 34 13 67 29 73 37 6 8 16 14 21 14 10 0 312 149
428 211 195 105 325 209 580 464 53 53 57 55 124 63 78 8 106 32 38 32 -80 0
-68 54 14 67 22 3 44 10 51 15 7 6 20 5 34 -2 15 -9 84 -11 235 -9 l214 4 0
44 c0 36 -2 42 -14 32 -10 -9 -86 -11 -271 -9 -240 3 -258 4 -271 22 -12 17
-12 22 2 37 15 16 14 22 -4 73 -15 41 -17 58 -8 65 6 5 58 12 116 16 58 4 176
13 264 21 119 11 162 12 172 3 12 -10 14 66 13 502 0 323 -4 506 -9 491 -12
-28 -68 -54 -91 -41 -9 4 -26 32 -38 60 l-23 52 -74 -74 c-41 -41 -100 -110
-132 -154 -78 -110 -121 -150 -183 -170 -57 -19 -168 -17 -193 4 -8 6 -17 42
-20 79 -9 83 -49 239 -75 289 -28 56 -68 90 -89 77 -45 -28 -54 -120 -26 -264
9 -49 12 -86 6 -92 -5 -5 -49 11 -108 39 -90 44 -105 48 -169 47 -62 -1 -88
-8 -225 -64 -85 -34 -160 -69 -167 -77 -10 -13 -22 -12 -101 6 -169 40 -251
26 -282 -48 -15 -37 -32 -41 -94 -23 -27 7 -110 27 -184 43 -189 40 -228 66
-203 135 l13 36 -98 100 c-93 93 -101 99 -134 95 -51 -6 -169 10 -212 29 -24
11 -47 33 -66 65 -37 58 -131 130 -210 159 -85 32 -208 53 -267 46 -72 -10
-92 -8 -124 9 -29 15 -41 40 -71 156 -9 36 -36 74 -116 168 -132 153 -162 164
-210 75 -26 -48 -37 -48 -172 -4 -157 52 -572 219 -659 265 -155 82 -184 117
-227 270 -36 130 -49 156 -104 207 -55 52 -124 78 -202 78 -68 0 -87 -23 -71
-86 7 -26 8 -51 4 -55 -5 -5 -28 4 -53 20 -25 15 -88 54 -140 86 -109 67 -150
101 -150 127 0 10 24 35 55 58 65 48 75 65 75 123 0 39 -5 49 -35 75 -45 40
-90 52 -202 52 l-92 0 -28 -35 c-15 -19 -35 -35 -44 -35 -14 0 -150 95 -157
109 -1 3 -31 57 -66 120 -36 63 -75 141 -87 174 l-22 59 -59 -6 c-119 -12
-210 29 -253 114 -14 27 -25 56 -25 65 0 11 -11 15 -38 15 -27 0 -39 -4 -39
-15 0 -8 4 -12 9 -9 12 8 10 -2 -12 -44 -18 -35 -26 -40 -67 -46 -77 -10 -158
-7 -178 8 -18 13 -18 15 11 39 16 15 41 27 56 27 15 0 30 5 33 10 4 6 -15 10
-50 10 -46 0 -60 4 -81 25 -24 24 -24 25 -8 64 16 40 16 40 -26 124 -41 84
-54 96 -104 97 -14 0 -16 -3 -7 -13 6 -8 8 -17 4 -21 -4 -4 -8 -17 -8 -28 0
-12 -6 -23 -14 -26 -8 -3 -11 0 -7 7 11 17 -15 13 -28 -4 -8 -11 -19 -13 -41
-7 -32 9 -40 30 -15 42 45 21 75 39 78 48 1 5 -41 17 -95 27 -215 39 -330 63
-361 76 l-34 14 31 39 c20 25 31 50 31 70 0 39 -28 101 -65 144 -25 30 -32 33
-64 26 -59 -12 -90 -5 -158 32 -73 41 -93 72 -93 139 0 61 -24 110 -69 141
-20 13 -88 40 -151 60 -63 20 -137 48 -163 62 -98 53 -174 170 -223 345 -15
50 -30 96 -34 100 -4 5 -36 -2 -71 -14 -55 -19 -70 -20 -105 -10 -109 30 -168
120 -190 291 -9 76 -16 86 -83 119 -69 34 -167 95 -197 123 -21 19 -21 19 -27
-1 -12 -46 -36 -19 -101 107 -36 70 -76 134 -88 143 -13 9 -49 24 -80 33 -67
19 -88 37 -88 74 0 23 -8 31 -42 47 -41 19 -43 23 -46 66 -4 68 42 347 87 529
44 174 110 358 177 492 34 68 42 94 38 117 -4 19 -2 37 6 46 8 10 9 19 3 28
-6 6 -15 39 -22 71 -12 65 -7 76 35 76 15 0 24 8 28 24 7 28 30 36 114 36 72
0 90 -17 51 -50 l-24 -20 40 16 c22 9 47 21 55 28 54 43 311 182 473 255 145
66 340 121 582 166 77 14 149 28 160 31 22 5 247 39 363 54 39 5 111 12 160
16 284 20 283 19 58 28 -115 5 -278 5 -362 1 -85 -4 -154 -3 -154 1 0 4 11 22
24 39 30 39 81 64 205 99 155 45 211 83 301 206 81 111 78 109 188 142 135 39
138 37 94 -86 -37 -108 -41 -146 -13 -146 25 0 82 51 331 295 191 187 222 214
275 234 89 35 215 39 325 12 87 -22 516 -167 598 -202 42 -18 44 -21 29 -36
-12 -12 -55 -20 -164 -30 -81 -7 -170 -18 -198 -23 -58 -12 -105 -43 -90 -59
17 -17 111 -31 207 -31 121 0 130 -6 123 -78 -7 -68 9 -102 74 -146 52 -36
119 -44 229 -26 72 11 437 116 565 162 51 19 73 20 205 16 146 -5 148 -6 297
-57 401 -140 380 -134 510 -139 259 -9 514 70 713 222 88 67 163 92 305 101
54 3 114 12 134 19 33 11 44 10 103 -10 81 -29 154 -30 251 -3 41 11 139 33
219 50 165 33 194 42 267 75 29 14 92 38 140 55 49 17 119 49 158 71 103 61
129 61 315 -2 146 -49 285 -77 303 -60 14 13 -63 67 -142 100 -170 71 -191 83
-191 105 0 49 249 90 450 74 58 -5 164 -11 237 -15 116 -6 135 -5 159 10 24
16 26 23 21 62 -7 63 8 79 69 71 47 -5 256 -79 281 -100 10 -7 13 78 13 422
l0 431 -967 0 c-534 0 -962 -4 -955 -9 10 -6 5 -13 -20 -29 -42 -26 -94 -80
-85 -88 4 -4 52 8 108 25 151 48 163 34 66 -80 -126 -147 -248 -257 -392 -355
-78 -52 -146 -94 -153 -94 -27 0 -9 21 49 55 116 71 48 47 -141 -49 -104 -54
-194 -94 -200 -91 -5 3 -10 24 -10 46 0 47 -23 107 -44 115 -8 3 -68 -17 -133
-44 -65 -27 -208 -85 -318 -128 l-200 -78 -73 -75 c-56 -56 -76 -71 -82 -60
-14 22 -23 135 -15 195 9 75 -7 94 -81 94 -63 0 -119 -27 -299 -144 -151 -98
-215 -158 -215 -202 0 -42 41 -115 108 -192 64 -74 84 -85 181 -105 80 -17 93
-24 71 -37 -61 -39 -205 30 -449 215 -136 103 -133 100 -129 85 7 -31 -23 -17
-60 28 -23 27 -60 61 -84 77 -24 15 -62 41 -85 57 -23 15 -46 28 -51 28 -16 0
-63 41 -57 50 3 4 -3 6 -13 3 -10 -2 -43 5 -72 17 -90 36 -139 48 -265 65 -66
9 -122 19 -125 21 -2 3 1 14 8 24 7 11 12 31 12 44 0 22 -9 27 -87 52 -122 38
-151 54 -204 116 -43 50 -79 72 -176 108 -74 28 -19 50 120 50 63 -1 117 -6
142 -15 83 -30 91 -25 159 92 l19 33 -35 79 c-26 57 -33 82 -25 90 8 8 -1143
11 -4123 10 l-4135 -1 125 -27 c134 -29 150 -35 150 -55 0 -9 56 -31 148 -60
81 -26 162 -54 180 -62 18 -8 38 -14 45 -14 19 0 221 -76 274 -104 50 -25 99
-71 104 -96 9 -46 -11 -71 -103 -125 -69 -41 -209 -107 -256 -120 -73 -22
-293 -131 -357 -178 -28 -20 -63 -43 -80 -50 -34 -16 -125 -94 -125 -108 0
-21 66 -6 192 42 331 127 425 152 558 152 81 0 103 -4 150 -25 50 -23 85 -52
104 -85 10 -18 -21 -83 -57 -122 -93 -97 -270 -169 -440 -178 -69 -4 -116 -1
-165 10 -37 9 -146 26 -242 38 -152 18 -209 20 -435 16 -231 -4 -324 -13 -342
-31 -11 -11 20 -36 56 -46 45 -12 207 -37 326 -51 118 -13 228 -35 290 -58
150 -56 228 -122 280 -234 33 -73 50 -168 33 -185 -6 -6 -34 8 -74 39 -144
109 -350 179 -617 210 -158 18 -435 7 -617 -25 -247 -43 -345 -50 -519 -37
-220 17 -256 23 -255 44 1 9 -3 17 -8 17 -6 0 -7 7 -4 16 3 8 2 13 -2 10 -14
-8 -29 8 -56 63 -56 110 -170 242 -283 327 -39 30 -77 54 -85 54 -7 0 -26 7
-43 16 -59 31 -149 64 -174 64 -14 0 -48 7 -75 15 -65 20 -96 19 -96 -2 0 -9
29 -71 65 -137 68 -125 99 -162 249 -301 43 -40 76 -77 73 -83 -9 -14 -538 77
-561 97 -48 41 -280 401 -280 435 -1 17 5 19 57 17 65 -3 97 15 97 54 0 37
-12 46 -295 216 -171 102 -173 103 -159 126 10 15 -3 32 -88 118 -55 55 -120
126 -144 158 -74 98 -55 122 65 83 149 -48 163 -43 63 21 -50 32 -179 96 -237
118 l-20 7 20 8 c11 5 -456 9 -1037 9 l-1058 1 0 -352z m8824 -3112 c-23 -66
-78 -117 -180 -166 -91 -45 -90 -43 -49 -110 32 -53 23 -98 -21 -104 -11 -2
-19 -9 -19 -17 0 -17 -78 -77 -175 -135 -41 -25 -102 -62 -135 -82 -33 -21
-91 -55 -130 -76 -67 -38 -70 -39 -120 -28 -27 6 -138 31 -245 55 -107 25
-265 59 -350 76 -173 36 -213 48 -190 61 23 12 107 23 185 25 48 1 93 10 142
28 39 14 122 35 185 47 219 41 314 63 403 95 161 58 350 161 580 314 66 44
123 77 127 73 5 -5 1 -30 -8 -56z m165 -497 c-28 -52 -57 -104 -63 -116 -6
-13 -14 -23 -19 -23 -4 0 -12 -11 -17 -25 -5 -14 -16 -25 -24 -25 -8 0 -23
-11 -33 -25 -13 -18 -39 -31 -93 -46 -79 -21 -122 -40 -155 -70 -43 -38 -63
-38 -196 1 -134 39 -152 47 -144 59 2 5 48 34 102 66 118 70 235 149 325 222
l67 53 32 -35 c34 -36 51 -37 48 -2 -4 56 9 59 97 26 l58 -22 23 29 c12 16 23
33 23 39 0 5 5 4 11 -2 7 -7 -6 -38 -42 -104z m644 -398 c51 -49 117 -143 160
-228 16 -31 49 -71 83 -100 120 -101 262 -230 335 -304 42 -42 98 -94 125
-115 27 -22 71 -64 99 -94 27 -30 60 -67 74 -83 19 -21 22 -30 13 -39 -9 -9
-16 -8 -30 5 -10 9 -24 17 -31 17 -7 0 -31 15 -54 34 -168 136 -497 345 -777
493 l-205 109 4 58 c2 44 0 57 -9 51 -7 -4 -10 -22 -8 -42 6 -54 -16 -58 -101
-21 -39 18 -71 37 -71 44 0 7 15 18 34 24 36 12 52 25 58 49 2 8 17 42 33 75
24 49 37 63 62 70 25 8 34 17 39 40 11 53 20 57 72 29 26 -14 69 -47 95 -72z
m-3627 -536 c27 -11 40 -27 61 -72 23 -50 27 -74 31 -183 5 -139 -14 -803 -24
-837 -5 -19 -12 -22 -60 -19 -54 3 -54 2 -77 -38 -16 -30 -29 -41 -45 -40 -17
0 -24 -7 -32 -35 -5 -20 -23 -88 -39 -151 -54 -209 -102 -317 -164 -364 -36
-27 -116 -53 -138 -44 -8 3 -27 37 -42 74 -15 38 -57 119 -93 179 -248 418
-301 723 -188 1093 42 140 99 175 210 130 76 -30 151 -80 251 -168 90 -77 93
-77 93 19 0 88 61 355 97 424 24 47 92 60 159 32z m599 -208 c39 -19 126 -71
195 -116 166 -109 341 -196 533 -266 94 -35 157 -63 157 -71 0 -7 -13 -29 -30
-47 -16 -19 -30 -45 -30 -58 0 -13 -7 -35 -14 -49 -24 -43 -76 -148 -76 -154
0 -2 -5 -17 -12 -33 -6 -15 -12 -30 -12 -33 -1 -3 -14 -24 -29 -48 -15 -24
-32 -53 -37 -65 -6 -12 -14 -29 -20 -37 -5 -8 -16 -31 -25 -50 -8 -19 -20 -44
-27 -54 -52 -79 -88 -141 -88 -151 0 -13 -42 -35 -67 -35 -9 0 -24 7 -34 16
-15 14 -26 14 -70 5 -28 -6 -64 -20 -79 -31 -22 -16 -30 -17 -38 -7 -6 7 -18
82 -27 167 -29 284 -56 402 -130 555 -38 80 -66 111 -91 101 -18 -7 -18 2 6
-276 13 -147 12 -244 -2 -258 -8 -8 -20 -2 -47 28 -34 36 -82 66 -142 89 -36
13 -38 29 -45 371 -5 239 -3 297 10 359 19 92 53 162 86 179 36 19 103 7 185
-31z m-5519 -914 c38 -80 143 -184 209 -207 68 -24 208 -31 335 -16 187 21
395 24 495 6 92 -16 242 -55 305 -80 256 -102 352 -144 505 -221 183 -93 411
-222 559 -319 44 -29 90 -58 102 -64 12 -6 52 -72 94 -154 205 -401 293 -541
425 -673 167 -169 184 -173 655 -185 466 -12 587 -27 963 -120 118 -30 255
-56 341 -66 l143 -17 66 -79 c69 -85 160 -253 197 -367 16 -47 21 -85 19 -152
-2 -122 -1 -121 -159 -102 -86 10 -182 13 -310 10 -160 -4 -206 -9 -335 -37
-140 -30 -159 -32 -285 -27 -91 4 -171 14 -245 31 -254 58 -459 96 -605 111
-85 8 -182 20 -215 27 -72 13 -132 49 -141 83 -13 52 45 227 122 371 54 99 55
122 9 163 -54 47 -278 110 -664 186 -150 29 -160 33 -210 83 -44 42 -212 154
-300 199 -37 19 -99 52 -140 73 -41 22 -149 72 -240 111 -91 39 -197 86 -236
104 -38 18 -95 44 -125 58 -30 14 -111 52 -180 85 -69 33 -132 63 -140 66 -48
20 -322 177 -414 236 -236 153 -458 368 -534 519 -13 25 -31 54 -39 63 -19 21
-82 195 -95 262 -21 108 24 134 68 39z m10905 -743 c85 -80 233 -189 364 -269
209 -129 616 -401 710 -475 49 -39 148 -123 220 -187 216 -191 328 -276 630
-476 116 -76 266 -177 335 -224 69 -47 154 -102 190 -122 110 -61 307 -142
500 -206 102 -34 199 -66 215 -72 40 -14 247 -74 370 -109 230 -65 563 -174
765 -252 85 -33 183 -70 217 -83 35 -13 80 -37 101 -54 46 -36 70 -46 165 -67
40 -9 97 -28 127 -41 382 -173 599 -217 1101 -228 100 -2 186 -8 191 -13 22
-22 -125 -92 -192 -92 -14 0 -34 -6 -44 -13 -15 -11 -16 -19 -8 -49 5 -19 6
-41 2 -47 -23 -38 -517 -64 -798 -42 -399 31 -589 72 -922 198 -239 90 -336
121 -484 153 -78 17 -195 43 -261 60 -132 33 -123 35 -152 -33 -11 -26 -10
-28 20 -40 18 -8 79 -25 137 -40 446 -111 464 -117 780 -237 316 -121 563
-166 1045 -190 206 -10 433 -2 600 21 l84 12 54 -55 c30 -30 53 -61 51 -70 -2
-15 2 -15 38 -2 22 8 43 14 45 14 28 0 -169 -116 -330 -194 -110 -53 -114 -53
-220 -8 -55 23 -75 26 -172 26 -90 -1 -139 -7 -270 -38 -351 -81 -507 -85
-780 -21 -217 51 -393 126 -590 251 -125 80 -726 377 -846 419 -55 19 -175 51
-267 70 -365 79 -418 99 -627 249 -66 48 -174 114 -240 147 -137 69 -205 109
-453 269 -97 63 -199 128 -225 145 -27 16 -70 44 -95 61 -83 54 -273 161 -422
236 -138 70 -146 75 -158 112 -7 21 -13 61 -14 88 0 26 -5 51 -9 54 -5 3 -9
15 -9 26 0 12 -20 48 -45 79 -25 32 -45 66 -45 78 0 11 -4 22 -9 25 -5 3 -12
27 -16 53 -9 65 -54 224 -105 368 -50 146 -52 159 -22 163 26 4 27 20 8 77
-10 29 -28 49 -66 75 -47 32 -56 45 -96 134 -46 103 -47 126 -2 126 19 0 19 0
1 28 -11 15 -39 68 -62 117 -24 50 -54 103 -67 118 -22 26 -24 47 -5 47 4 0
32 -23 62 -50z m-10775 -915 c27 -13 72 -43 99 -66 28 -23 94 -75 147 -115 53
-39 94 -75 90 -80 -4 -4 -2 -5 3 -1 6 3 35 -8 65 -24 144 -79 301 -137 445
-164 218 -41 306 -86 581 -301 301 -235 413 -311 604 -412 356 -188 633 -251
1455 -332 662 -65 711 -71 1150 -136 73 -11 156 -14 305 -11 175 3 225 8 340
32 170 35 358 40 460 12 212 -58 378 -199 420 -355 18 -69 -20 -168 -75 -194
-11 -5 -32 -15 -46 -23 -104 -58 -356 -69 -696 -31 -127 14 -262 26 -300 26
-146 0 -220 -40 -405 -217 -133 -127 -217 -188 -261 -188 -19 0 -31 -5 -32
-15 -2 -8 -17 -31 -35 -50 -18 -19 -46 -52 -61 -73 -15 -21 -31 -39 -36 -40
-4 -1 -8 -8 -10 -16 -3 -21 -68 -112 -105 -148 -46 -44 -148 -97 -246 -127
-104 -33 -307 -60 -389 -52 -80 7 -114 24 -188 96 -77 75 -122 92 -338 130
-406 71 -792 189 -1007 308 -134 73 -170 116 -150 178 15 46 51 71 168 119
145 60 133 85 -68 141 -79 21 -120 26 -241 29 -139 2 -149 4 -198 30 -59 32
-115 87 -169 165 -22 33 -46 56 -59 58 -15 2 -44 -17 -95 -64 -80 -74 -163
-119 -218 -117 -111 2 -277 162 -413 398 -96 164 -149 324 -212 634 -19 96
-43 199 -51 230 -35 120 -120 274 -212 386 -23 27 -42 55 -42 62 0 7 -6 13
-13 13 -14 0 -171 158 -204 206 -31 45 -14 73 62 101 79 29 120 28 181 -2z
m9611 -2568 c-103 -144 -227 -221 -485 -303 l-146 -46 -23 26 c-13 15 -23 31
-23 35 0 4 66 27 146 50 273 80 380 134 494 250 36 37 69 64 74 60 5 -4 -12
-37 -37 -72z m-4853 -1024 c-17 -27 -200 -120 -292 -149 -109 -35 -171 -30
-367 30 -171 52 -268 64 -371 47 -70 -12 -165 -50 -195 -77 -29 -27 -33 4 -6
45 32 48 71 73 170 106 144 48 242 43 430 -21 149 -51 264 -65 365 -44 27 6
93 33 148 60 86 42 101 47 114 34 11 -11 12 -19 4 -31z"/>
<path d="M15425 10188 c-41 -13 -100 -21 -187 -25 -179 -8 -185 -22 -50 -133
34 -29 60 -55 57 -60 -3 -4 -22 -4 -42 1 -21 5 -69 16 -108 24 -38 9 -99 22
-135 30 -352 78 -720 105 -940 70 -52 -9 -138 -29 -190 -45 -52 -15 -177 -53
-276 -83 -190 -58 -232 -74 -218 -86 5 -4 36 -19 69 -33 1179 -511 1723 -793
2175 -1128 63 -47 158 -116 210 -152 336 -235 907 -660 1177 -874 296 -236
593 -501 715 -637 40 -45 150 -167 243 -272 248 -275 435 -495 435 -509 0 -3
-19 -6 -42 -6 -48 0 -98 -26 -123 -64 -13 -19 -16 -41 -12 -88 6 -94 25 -148
65 -190 34 -35 40 -38 94 -38 52 0 62 3 96 34 35 33 37 37 34 93 -1 32 -3 69
-5 82 -4 48 21 29 104 -76 221 -281 372 -535 401 -676 10 -46 8 -61 -12 -121
-17 -54 -29 -72 -52 -85 -75 -41 -81 -49 -73 -109 4 -31 25 -120 46 -200 69
-252 108 -475 125 -714 l6 -86 42 -11 c23 -6 54 -20 69 -31 l26 -21 6 38 c4
21 11 51 16 67 5 16 10 43 11 60 1 25 2 22 8 -14 4 -25 8 287 8 694 2 604 0
736 -11 728 -10 -9 -23 4 -56 56 -57 86 -57 96 -3 100 24 2 50 -2 58 -9 12
-10 14 -3 14 41 0 44 -2 51 -14 41 -9 -8 -43 -11 -92 -9 l-78 3 -77 100 c-97
124 -159 213 -159 225 0 6 7 10 16 10 8 0 20 13 25 29 9 25 24 34 107 66 53
20 121 49 150 63 42 20 58 24 80 16 22 -8 28 -17 33 -54 3 -25 7 299 7 720 1
703 0 762 -14 733 -25 -50 -118 -131 -188 -164 -127 -59 -475 -170 -566 -179
-47 -5 -132 -14 -190 -20 -58 -6 -172 -24 -255 -40 -193 -38 -289 -49 -312
-36 -10 5 -63 50 -118 100 -166 150 -616 533 -725 617 -18 14 -31 30 -27 36 4
6 77 13 184 16 138 4 205 11 298 31 160 35 238 43 510 56 495 23 711 54 852
124 136 68 492 191 530 183 l23 -4 -1 166 c-1 91 -3 159 -6 151 -6 -20 -107
-104 -168 -140 -69 -41 -160 -70 -217 -70 -26 0 -92 14 -145 31 -53 17 -123
34 -155 37 l-58 5 -59 -61 c-42 -44 -68 -62 -94 -67 -47 -9 -136 17 -167 50
-30 32 -69 32 -124 0 -69 -41 -90 -68 -82 -110 9 -44 -6 -52 -60 -29 -81 33
-291 127 -336 150 -63 32 -83 30 -164 -14 -60 -32 -69 -42 -77 -74 -5 -20 -16
-39 -24 -42 -21 -8 -82 29 -177 109 -73 62 -79 65 -96 50 -24 -22 -114 -55
-148 -55 -31 0 -117 47 -146 79 -25 27 -28 27 -83 -13 -27 -19 -95 -56 -153
-84 -165 -78 -270 -79 -270 -2 0 53 -120 132 -228 149 -29 4 -72 23 -108 46
-32 21 -75 48 -94 60 -19 12 -66 42 -105 67 -125 81 -275 170 -491 292 -76 43
-189 107 -249 141 -61 35 -127 70 -148 78 -20 9 -37 21 -37 28 0 39 124 214
203 284 98 89 162 126 254 146 100 22 160 53 183 93 13 24 30 33 95 53 133 40
223 63 245 63 18 0 20 4 14 23 -16 51 -46 96 -108 160 -75 76 -88 79 -191 45z"/>
<path d="M18770 10160 c-120 -25 -276 -65 -284 -72 -6 -4 7 -8 27 -8 88 0 363
-77 474 -133 27 -14 59 -28 73 -32 14 -4 51 -23 83 -41 l57 -33 0 139 c0 116
-2 138 -14 134 -8 -3 -25 1 -38 10 -60 39 -268 60 -378 36z"/>
<path d="M1670 10065 c-41 -7 -122 -21 -180 -30 -127 -21 -144 -28 -100 -44
41 -14 102 -14 149 0 44 13 102 -4 83 -23 -18 -18 -14 -73 5 -89 24 -21 130
-16 175 7 69 35 209 136 205 147 -2 8 -38 13 -99 15 -70 2 -100 7 -108 17 -15
18 -30 18 -130 0z"/>
<path d="M1085 9965 c-159 -34 -176 -45 -151 -93 19 -37 35 -41 173 -49 115
-6 156 1 196 35 27 24 21 66 -14 96 -25 22 -40 26 -87 25 -31 0 -84 -6 -117
-14z"/>
<path d="M671 9802 c-33 -29 -42 -43 -40 -62 5 -30 44 -38 93 -19 47 19 66 39
66 71 0 21 -6 31 -26 38 -39 15 -46 13 -93 -28z"/>
<path d="M12275 9776 c-26 -14 -58 -21 -93 -20 -53 0 -53 0 -50 -29 2 -17 10
-33 18 -37 8 -4 25 -12 37 -18 36 -19 97 -14 127 9 29 23 36 74 14 100 -11 13
-18 13 -53 -5z"/>
<path d="M11414 9641 c-11 -5 -34 -25 -52 -45 -28 -32 -32 -44 -32 -93 0 -51
3 -58 39 -94 36 -36 43 -39 95 -39 50 0 60 4 96 36 38 35 40 39 40 98 0 58 -2
64 -38 99 -29 28 -48 38 -82 42 -25 3 -54 1 -66 -4z"/>
<path d="M13051 9615 c-27 -32 -31 -43 -31 -97 0 -34 4 -75 10 -92 5 -17 12
-44 15 -60 10 -46 66 -96 109 -96 28 0 44 9 82 45 l46 46 -4 59 c-3 39 -11 70
-24 88 -12 15 -24 39 -27 53 -4 15 -20 41 -36 58 -23 25 -37 31 -69 31 -33 0
-45 -6 -71 -35z"/>
<path d="M189 9448 c-30 -24 -81 -72 -115 -107 -51 -52 -63 -60 -67 -45 -3 11
-5 0 -6 -24 0 -24 3 -41 8 -38 4 3 25 -4 47 -14 21 -11 45 -20 54 -20 16 0
132 92 138 110 2 4 28 27 58 50 63 50 70 77 25 109 -45 33 -81 27 -142 -21z"/>
<path d="M12085 9162 c-47 -29 -65 -64 -65 -125 0 -40 6 -61 21 -81 66 -84
195 -71 242 26 25 50 14 111 -28 156 -27 30 -39 36 -86 39 -41 3 -61 0 -84
-15z"/>
<path d="M14360 9039 c-42 -17 -80 -60 -80 -90 0 -15 5 -31 10 -34 6 -3 10
-21 10 -38 0 -18 7 -43 16 -55 13 -18 19 -20 36 -11 15 8 19 8 14 0 -12 -19
59 -13 162 15 10 3 10 9 2 24 -8 16 -6 22 12 34 20 13 23 22 20 60 -6 65 -42
96 -118 102 -33 2 -70 -1 -84 -7z"/>
<path d="M13610 9003 c0 -5 21 -44 46 -88 82 -143 124 -234 164 -354 22 -65
53 -147 70 -182 36 -76 36 -85 9 -209 -40 -183 -22 -323 49 -376 20 -15 39
-31 43 -36 3 -4 13 -51 24 -103 18 -95 19 -96 64 -129 25 -19 73 -41 106 -51
97 -26 128 -44 162 -90 18 -24 61 -65 95 -91 136 -102 178 -157 213 -276 16
-55 18 -58 153 -159 296 -223 416 -297 857 -529 353 -186 518 -316 607 -478
40 -70 309 -403 408 -503 88 -90 154 -138 168 -125 3 3 -2 48 -10 98 -31 186
-120 358 -271 525 -92 102 -222 220 -300 275 -176 123 -317 201 -507 282 -91
39 -108 48 -214 109 -186 106 -398 281 -756 621 -151 144 -364 342 -402 375
-57 49 -62 77 -60 329 l1 224 -34 65 c-20 35 -32 70 -28 76 4 7 21 29 37 51
29 35 31 44 29 111 -1 61 -7 85 -34 140 -32 65 -77 115 -105 115 -7 0 -28 -13
-45 -28 -24 -21 -34 -40 -38 -72 -3 -24 -11 -45 -18 -47 -6 -2 -33 27 -59 64
-123 174 -223 301 -288 367 -68 67 -136 117 -136 99z"/>
<path d="M10940 8975 c0 -4 7 -20 16 -37 13 -26 14 -37 4 -74 -26 -91 -127
-132 -206 -83 -30 18 -34 19 -34 4 0 -9 9 -30 20 -45 70 -98 208 -93 277 9 41
61 24 165 -35 211 -24 20 -42 26 -42 15z"/>
<path d="M12716 8819 c2 -4 13 -6 23 -4 15 3 23 -6 35 -36 14 -36 14 -43 -2
-86 -13 -36 -26 -52 -52 -65 -50 -26 -100 -23 -145 8 l-38 25 7 -33 c13 -66
88 -118 169 -118 51 0 117 41 142 89 26 50 20 122 -14 169 -16 22 -36 44 -43
48 -17 11 -89 13 -82 3z"/>
<path d="M386 8443 c-16 -17 -2 -403 15 -403 5 0 24 14 44 31 32 28 35 36 35
85 0 50 -2 55 -31 69 -23 12 -29 21 -24 33 17 39 17 119 1 150 -17 34 -30 45
-40 35z"/>
<path d="M10075 8323 c-95 -11 -165 -45 -165 -78 0 -20 43 -53 85 -64 63 -19
251 -25 335 -12 96 15 135 37 135 77 0 23 -7 32 -35 46 -64 31 -235 46 -355
31z"/>
<path d="M2464 8288 c-5 -7 -18 -29 -28 -48 -11 -19 -43 -61 -73 -93 -47 -52
-53 -63 -53 -103 0 -38 5 -49 40 -84 35 -35 46 -40 84 -40 38 0 48 5 80 40 43
47 47 91 17 167 -10 26 -22 66 -25 88 -10 56 -30 90 -42 73z"/>
<path d="M15745 8279 c-122 -16 -156 -65 -75 -107 42 -22 55 -23 200 -20 130
2 161 6 184 21 36 24 42 44 22 66 -34 37 -199 57 -331 40z"/>
<path d="M15117 8202 c-30 -31 -37 -45 -37 -77 0 -22 7 -48 14 -58 7 -9 11
-28 8 -42 -3 -18 4 -33 29 -58 58 -58 167 -59 189 -3 5 13 13 27 18 30 6 3 8
43 5 93 -5 84 -6 89 -39 121 -30 29 -40 32 -92 32 -54 0 -61 -3 -95 -38z"/>
<path d="M11400 8095 c0 -4 7 -19 15 -35 35 -68 -9 -162 -82 -176 -43 -8 -51
0 -27 27 l19 22 -25 -16 c-27 -17 -73 -15 -95 3 -23 19 -19 -26 6 -66 31 -52
76 -74 147 -74 54 0 65 4 97 31 54 48 68 83 62 147 -5 48 -12 61 -49 99 -37
37 -68 55 -68 38z"/>
<path d="M12261 7785 c-30 -28 -40 -44 -45 -81 -12 -94 41 -154 139 -154 53 0
60 3 96 39 34 34 39 44 39 85 0 92 -50 146 -136 146 -48 0 -59 -4 -93 -35z"/>
<path d="M16806 7619 c-77 -61 -73 -181 9 -235 21 -14 40 -16 105 -11 47 4 82
2 85 -3 3 -6 11 -10 17 -10 7 0 7 4 0 13 -6 7 -7 18 -3 26 15 24 12 139 -3
170 -27 51 -62 71 -126 71 -43 0 -64 -5 -84 -21z"/>
<path d="M15782 7467 c-45 -46 -43 -91 6 -177 58 -99 136 -125 194 -63 20 21
23 37 27 115 l3 90 -33 34 c-31 32 -37 34 -99 34 -62 0 -68 -2 -98 -33z"/>
<path d="M545 7056 c-16 -24 -14 -28 33 -108 27 -46 58 -101 69 -123 16 -32
26 -41 50 -43 23 -2 35 3 47 19 14 20 14 25 1 39 -8 9 -15 20 -15 23 0 4 -9
16 -20 27 -11 11 -20 31 -20 44 0 13 -7 29 -15 36 -8 7 -15 21 -15 32 0 30
-19 58 -40 58 -10 0 -22 5 -25 10 -11 17 -34 11 -50 -14z"/>
<path d="M17295 7049 c-30 -27 -35 -37 -35 -76 0 -38 5 -50 34 -79 25 -25 43
-34 66 -34 40 0 96 -33 103 -60 7 -27 19 -25 47 5 26 28 29 58 15 155 -6 41
-15 63 -38 88 -29 29 -36 32 -94 32 -55 0 -66 -3 -98 -31z"/>
<path d="M11279 7021 c-37 -36 -39 -42 -39 -99 0 -57 2 -61 40 -96 35 -31 47
-36 90 -36 91 0 146 62 137 153 -4 42 -10 56 -41 84 -32 29 -42 33 -92 33 -52
0 -59 -3 -95 -39z"/>
<path d="M13810 6829 c-57 -11 -95 -39 -95 -70 0 -19 11 -29 50 -49 45 -22 65
-25 196 -28 160 -4 243 7 283 39 52 41 23 83 -71 105 -65 15 -291 17 -363 3z"/>
<path d="M16745 6800 c19 -36 19 -44 -1 -85 -28 -60 -115 -75 -166 -28 -17 15
-18 15 -18 -1 0 -9 9 -34 20 -56 11 -22 20 -50 20 -64 0 -15 13 -35 35 -55 29
-25 45 -31 81 -31 56 0 102 23 115 58 8 21 7 29 -7 39 -20 15 -28 49 -14 58 6
3 10 33 10 65 0 52 -4 64 -31 95 -40 45 -67 49 -44 5z"/>
<path d="M16055 6538 c-40 -16 -58 -18 -90 -11 -41 9 -41 9 -37 -19 10 -67
105 -90 175 -43 38 27 48 60 25 83 -14 14 -11 15 -73 -10z"/>
<path d="M17495 6122 c-73 -47 -87 -94 -60 -208 28 -118 77 -161 176 -152 60
6 103 42 121 99 9 31 8 47 -6 86 -9 26 -21 63 -26 82 -5 19 -24 49 -42 68 -44
43 -117 55 -163 25z"/>
<path d="M14491 6075 c-65 -59 -65 -154 0 -210 26 -21 41 -25 94 -25 61 0 64
1 99 40 30 34 36 47 36 86 0 90 -51 144 -136 144 -48 0 -59 -4 -93 -35z"/>
<path d="M15242 5997 c-28 -29 -32 -39 -32 -89 0 -52 2 -58 40 -92 35 -31 47
-36 89 -36 43 0 55 5 85 34 38 36 50 74 19 61 -66 -27 -74 -27 -112 -10 -49
22 -75 71 -60 114 17 48 6 55 -29 18z"/>
<path d="M13604 5941 c-49 -30 -74 -72 -74 -126 0 -43 4 -52 44 -91 40 -41 47
-44 96 -44 49 0 56 3 96 44 38 37 44 49 44 85 0 80 -47 135 -125 145 -40 5
-56 3 -81 -13z"/>
<path d="M15942 5483 c-32 -46 -43 -96 -51 -231 -15 -238 27 -413 95 -400 27
5 61 62 75 126 19 86 16 332 -4 412 -29 111 -76 149 -115 93z"/>
<path d="M18541 5380 c20 -27 21 -33 10 -70 -10 -34 -20 -45 -54 -60 -35 -16
-45 -17 -71 -6 -17 7 -32 18 -32 24 -1 7 -2 17 -3 24 -1 8 -7 7 -18 -4 -14
-15 -15 -23 -5 -56 7 -22 12 -52 12 -67 0 -19 13 -41 44 -71 41 -41 47 -44 99
-44 45 0 61 5 87 26 60 51 75 111 42 174 -11 19 -22 49 -26 65 -9 37 -63 95
-88 95 -17 0 -17 -2 3 -30z"/>
<path d="M15039 5184 c25 -31 27 -71 7 -119 -10 -23 -22 -35 -34 -35 -10 0
-27 -9 -37 -20 -11 -12 -31 -20 -49 -20 -33 0 -91 32 -79 43 3 4 -1 7 -10 7
-12 0 -17 -9 -17 -31 0 -24 11 -42 44 -75 43 -43 44 -44 111 -44 58 0 73 4
102 26 66 50 89 120 62 191 -14 38 -79 103 -102 103 -18 0 -17 -1 2 -26z"/>
<path d="M17741 4730 c-8 -25 -8 -36 1 -48 7 -8 11 -26 9 -40 -1 -14 3 -36 10
-49 12 -22 11 -27 -5 -39 -15 -10 -16 -16 -7 -27 9 -11 8 -17 -4 -27 -14 -12
-14 -15 0 -30 13 -14 13 -23 5 -46 -11 -28 -12 -29 -27 -9 -14 18 -15 12 -10
-77 7 -126 29 -169 59 -115 10 16 13 83 13 252 0 192 -3 235 -16 259 l-16 29
-12 -33z"/>
<path d="M18652 4467 c-27 -27 -32 -41 -32 -79 0 -43 4 -49 47 -87 36 -30 51
-37 64 -31 12 7 24 4 42 -10 30 -24 35 -24 76 -4 44 22 58 55 43 98 -7 18 -12
44 -12 57 0 15 -13 38 -33 57 -30 29 -38 32 -98 32 -60 0 -67 -2 -97 -33z"/>
<path d="M16647 4396 c-85 -24 -111 -68 -59 -104 44 -32 136 -45 294 -40 150
4 207 19 232 61 15 24 -1 47 -50 72 -33 17 -62 20 -204 22 -113 2 -180 -2
-213 -11z"/>
<path d="M16235 4093 c16 -39 16 -62 0 -96 -25 -54 -96 -73 -155 -42 -26 13
-30 14 -30 1 0 -22 63 -84 93 -91 48 -13 93 3 131 45 30 33 36 48 36 85 0 35
-6 51 -31 80 -33 37 -56 47 -44 18z"/>
<path d="M16775 3668 c-42 -42 -45 -49 -45 -97 0 -88 55 -141 146 -141 43 0
51 4 91 45 48 50 55 87 29 148 -23 53 -57 78 -120 84 -56 6 -56 6 -101 -39z"/>
<path d="M17687 3332 c-35 -35 -37 -42 -37 -100 0 -57 3 -64 35 -97 33 -32 40
-35 97 -35 57 0 63 2 99 39 36 36 39 43 39 95 0 50 -4 60 -36 96 -35 38 -39
40 -98 40 -59 0 -64 -2 -99 -38z"/>
<path d="M0 833 c0 -747 1 -791 17 -789 13 1 18 -6 17 -21 l-1 -23 854 0 853
0 -17 26 c-10 15 -43 75 -73 133 l-55 106 -161 125 c-191 148 -255 202 -432
364 -73 66 -147 126 -165 133 -18 6 -86 32 -152 58 -66 26 -134 51 -151 56
-38 11 -405 433 -507 584 l-27 40 0 -792z"/>
<path d="M19185 980 c-4 -6 -72 -10 -168 -11 -120 -1 -151 -3 -118 -10 24 -5
51 -15 61 -24 9 -8 22 -15 28 -15 7 0 21 -6 32 -12 15 -10 27 -10 50 -1 17 7
32 7 36 2 3 -5 20 -9 38 -9 17 0 37 -5 44 -12 9 -9 12 1 12 45 0 57 -3 66 -15
47z"/>
<path d="M19185 100 c-4 -6 -151 -10 -409 -10 -222 0 -505 -3 -630 -7 -206 -6
-224 -7 -189 -20 21 -7 52 -12 68 -11 17 1 36 -2 43 -6 16 -9 15 -33 0 -39 -7
-3 148 -6 344 -6 319 -1 357 1 351 15 -8 22 35 64 68 64 31 0 51 -20 53 -55 1
-25 1 -25 98 -25 87 0 96 2 92 18 -6 21 30 62 56 62 21 0 64 -55 55 -70 -3 -5
-1 -10 4 -10 7 0 11 23 11 55 0 55 -3 64 -15 45z"/>
</g>
</svg>
